# xmcd
#
# Track frame offsets:
#	150
#	33878
#	58389
#	81486
#	107715
#	133945
#	162455
#	188114
#	209782
#	234871
#	255399
#	281059
#
# Disc length: 4089 seconds
#
# Revision: 0
# Processed by: cddbd v1.5.2PL0 Copyright (c) Steve Scherf et al.
# Submitted via: EasyCDDAExtractor 10.2.0.1
#
DISCID=b40ff70c
DTITLE=Various Artist - What Dreams May Come CD 1
DYEAR=1900
DGENRE=
TTITLE0=Blackfeel Wite - First Night (J-Soul Vocal Remix)
TTITLE1=Freska - Margarita (Original Mix)
TTITLE2=Moonbeam feat. Avis Vox - Storm of Clouds (Original Mix)
TTITLE3=Mark Knight Adam K And Soha - From The Speaker (Original Dub Mix)
TTITLE4=Moonbeam feat.Blackfell Wite - Inside My Dream (Club Mix)
TTITLE5=J-Soul - Aura (Original mix)
TTITLE6=Moonbeam feat. Mohammed El Fatih - Just Try To Remember (Original Mix)
TTITLE7=Jan Zyabovski - Vanilla (Original Mix)
TTITLE8=Kaliber Feat. Elodie - Is This For Love (Original Mix)
TTITLE9=Povar - Haba Two (Pak and Vak Remix)
TTITLE10=Jay Lumen Feat. Panoptic - Surface Reborn (Dibby Dougherty Remix)
TTITLE11=Access Denied - Blood (Original Mix)
EXTD=
EXTT0=
EXTT1=
EXTT2=
EXTT3=
EXTT4=
EXTT5=
EXTT6=
EXTT7=
EXTT8=
EXTT9=
EXTT10=
EXTT11=
PLAYORDER=
